<?xml version="1.0" encoding="UTF-8" standalone="no"?>
<!-- Created with Inkscape (http://www.inkscape.org/) -->

<svg
   xmlns:dc="http://purl.org/dc/elements/1.1/"
   xmlns:cc="http://creativecommons.org/ns#"
   xmlns:rdf="http://www.w3.org/1999/02/22-rdf-syntax-ns#"
   xmlns:svg="http://www.w3.org/2000/svg"
   xmlns="http://www.w3.org/2000/svg"
   version="1.1"
   width="475.23083"
   height="257.43756"
   id="svg4715">
  <defs
     id="defs4717" />
  <metadata
     id="metadata4720">
    <rdf:RDF>
      <cc:Work
         rdf:about="">
        <dc:format>image/svg+xml</dc:format>
        <dc:type
           rdf:resource="http://purl.org/dc/dcmitype/StillImage" />
        <dc:title></dc:title>
      </cc:Work>
    </rdf:RDF>
  </metadata>
  <g
     transform="translate(-48.098857,-52.21483)"
     id="layer1">
    <path
       d="m 294.42888,168.39246 c -2.5,-4.8 -6.3,-6.5 -11.7,-5.9 -4.3,0.5 -8.7,-0.1 -13,0.1 -6.6,0.3 -12.9,-0.1 -18.6,-4 -1.4,-0.9 -3.5,-1.1 -5.2,-1.1 -20.8,-0.1 -41.59999,-0.2 -62.39999,0.1 -3.7,0.1 -7.3,2.1 -10.9,3.6 -4.7,1.9 -8.3,-0.8 -11.7,-2.8 -3.5,-2 -3.6,-5.9 -2.5,-9.4 1.3,-4.1 4.3,-6.1 8.8,-5.7 0.6,0.1 1.2,-0.2 1.9,-0.4 0.2,2.4 0.3,4.6 0.4,6.9 0.4,0.1 0.9,0.1 1.3,0.2 0.4,-2.1 0.7,-4.1 1.2,-6.6 2.5,0.8 6.2,-2.3 7.6,2.6 0.1,0.4 1.5,0.5 2.3,0.5 19.1,0 38.29999,0 57.99999,0 -0.5,-1.7 -0.9,-3 -1.3,-4.3 2,2.5 4,4.8 5.9,7.4 2.5,3.4 4.5,6.9 10.1,5.7 3.1,-0.6 6.7,0.8 10,1.3 0.2,0 0.3,0.3 0.5,0.5 -1.5,0.2 -2.8,0.3 -4.2,0.5 0,0.3 0,0.5 0,0.8 15.8,0 31.6,0 47.4,0 0,-0.3 0,-0.6 0,-1 -12.2,0 -24.5,0 -36.7,0 0,-0.3 0,-0.7 0,-1 39.3,0 78.5,0 118.3,0 -1,-1.7 -1.5,-2.7 -2.1,-3.8 5.5,-2.6 7.6,-2.1 10.4,2.1 0.5,0.7 1.4,1.4 2.2,1.5 3.6,0.4 7.3,1.1 10.8,0.8 6.9,-0.5 13.8,-1.8 20.7,-2.5 4.2,-0.4 8.4,-0.4 13,-0.7 -1.7,-1.3 -3.9,-3.8 -4.7,-3.4 -3.6,1.8 -6.6,0.5 -10.2,0 -11.4,-1.5 -23,-1.9 -34.6,-2.7 0.8,0.4 1.6,0.7 2.4,1.1 -11.2,3.2 -22.2,0.3 -33.3,-0.5 4.7,0 9.4,0 14.2,0 -7.9,-0.9 -15.7,-0.7 -23.6,-0.9 -12,-0.2 -24.1,-0.7 -36.1,-1.1 -2.5,-0.1 -5,0 -7.5,-0.4 -7.9,-1.2 -15.7,-2.5 -23.5,-3.8 -3.8,-0.6 -7.5,-1.1 -11.3,-1.8 -14.3,-2.7 -28.6,-5.5 -42.9,-8.2 -0.8,-0.1 -1.7,0.8 -2.6,1.3 -2.8,-0.7 -5.7,-2.1 -8.5,-2 -4.8,0.2 -6.1,-1.9 -5.9,-6.3 0.3,-7 0.1,-6.9 -7.09999,-7 -20,-0.5 -39.7,1.6 -59.4,5.7 -0.4,4.4 -0.7,8.8 -1.3,13.2 -0.2,1.2 -1.4,2.2 -2.1,3.3 -1,-1.1 -2.5,-2 -2.8,-3.2 -0.7,-3.2 -1,-6.6 -1.1,-9.9 0,-3 -1.2,-4.3 -4.2,-3.9 -1.5,0.2 -3,0.1 -4.5,0 -3,-0.2 -4.2,1.2 -4.2,4.2 -0.1,5.1 -0.5,10.1 -0.7,15.2 -0.6,0.2 -1.3,0.4 -1.9,0.6 -0.8,-1.3 -2.1,-2.6 -2.4,-4 -0.6,-3.7 -0.9,-7.5 -1,-11.3 -0.2,-5.9 -4.6,-3.2 -7.4,-3.7 -3.1,-0.5 -4,1.3 -4,4.2 0.1,4.3 0.3,8.7 -0.1,13 -0.1,1.6 -1.8,3.1 -2.7,4.6 -0.9,-1.6 -2.3,-3.1 -2.6,-4.8 -0.7,-4.4 -0.8,-8.9 -1.2,-13.6 -7.799998,-1.2 -15.499998,-1.8 -22.999998,-3.6 -10.9,-2.6 -21.7,-6 -32.5,-9.3 -1.1,-0.3 -2.4,-2.4 -2.4,-3.6 -0.3,-5.6 -0.1,-11.300003 0.8,-16.900003 0,2.8 0.2,5.6 0,8.400003 -0.3,4.3 3,5.9 5.6,5 6.9,-2.5 13,0.5 19.4,1.3 8.8,1 17.6,1.9 26.299998,2.8 0,-10.3 0,-19.600003 0,-29.300003 -5.099998,0.5 -10.599998,1.1 -16.099998,1.7 0,-0.3 -0.1,-0.6 -0.1,-1 5.4,-0.6 10.8,-1.5 16.199998,-1.8 3.2,-0.2 5.4,-0.5 5.4,-4.6 -0.1,-4.1 0.3,-8.3 1,-12.4 0.3,-1.5 2.1,-2.8 3.3,-4.2 0.7,1.5 1.7,3 1.9,4.6 0.5,5.9 0.8,11.8 1.1,18 3.4,0 6.4,0 10.3,0 0.3,-4.6 0.4,-9.1 0.9,-13.6 0.2,-1.6 1.5,-3.1 2.3,-4.7 0.9,1.5 2.2,3 2.5,4.6 2.1,10.6 1.4,21.4 1,32.200003 -0.2,5.7 3.2,5.1 6.7,5.2 3.9,0.2 6.2,-0.5 6.1,-5.4 -0.3,-9.600003 0,-19.200003 0.3,-28.800003 0,-1.4 1.5,-2.7 2.2,-4.1 0.9,1.3 2.4,2.5 2.7,3.9 0.7,3.7 0.9,7.6 1.2,11.6 1.7,0.6 3.6,1.2 6.2,2.1 -2.2,0.1 -3.7,0.2 -5.3,0.3 0,7.4 0,14.600003 0,22.100003 3.3,-0.3 6.2,-0.6 9.2,-0.9 0,0.2 0.1,0.4 0.1,0.6 -3,0.5 -6,1 -9.4,1.7 1.1,2.4 -1.8,5.2 2.7,7.5 3.3,1.7 3.5,3.2 6.4,2 3.6,-1.5 7.1,-3.3 10.8,-4.2 5.5,-1.3 11.1,-2.4 16.7,-2.7 8.3,-0.4 16.7,-0.1 25,-0.1 1.6,0 3.09999,0 4.69999,0 0,-0.5 0,-1.1 0,-1.6 -8.69999,0 -17.29999,0 -25.99999,0 0,-0.4 0,-0.8 0,-1.2 8.4,0 16.9,0 25.29999,0 0,-0.5 0.1,-0.9 0.1,-1.4 -6.69999,0 -13.39999,0 -20.09999,0 0,-0.5 0,-1.1 0,-1.6 6.9,0 13.7,0 20.59999,0 0,-0.4 0,-0.7 0,-1.1 -10.09999,0 -20.09999,0 -30.19999,0 0,-0.3 0,-0.6 0,-1 8,0 16,0 24,0 7.19999,0 9.29999,-2.9 6.89999,-9.800003 -2.2,-6.3 0.3,-9.9 7,-9.9 14.4,0.1 28.9,0.4 43.3,0.5 11.6,0.1 23.2,0.3 34.8,0.2 2,0 3.9,-1.5 5.9,-2.1 1.5,-0.5 3.2,-0.9 4.8,-0.9 14.8,-0.1 29.6,0 45.3,0 0,-4.5 0,-8.6 0,-12.7 0,-5.7 0.1,-5.7 5.4,-3.9 1.3,0.5 2.8,0.3 4.9,0.5 0,-3.3 -0.3,-6.1 0.1,-8.8 0.3,-1.8 1.3,-4.8 2.4,-5 3.5,-0.6 3.1,2.4 3.1,4.8 0,2 0,4 0,6 -0.1,3.3 1.3,4.7 5.2,3.5 0,-3 0,-6.1 0,-9.2 0,-2.2 -0.2,-4.4 3.2,-4.4 3.5,0.1 2.9,2.5 2.9,4.6 0,3 0,5.9 0,9.3 1.8,0.1 3.2,0.2 5.2,0.3 0,-2.7 -0.1,-5 0,-7.2 0.2,-2.9 -1.2,-6.8 3.4,-7.4 0.4,-0.1 1.6,4.5 2.1,7 0.3,1.6 -0.2,3.4 0.2,5 0.2,1 1.3,1.8 2.1,2.6 0.7,-0.9 1.9,-1.7 2,-2.7 0.6,-3.5 0.8,-7.1 1.2,-10.6 0,8.6 0,17.1 0,25.7 -1.7,-10.6 -1.7,-10.6 -4.6,-11.5 0.4,5 0.9,9.6 1.3,14.1 2.8,0 4.6,0 5.9,0 0,-8.9 0.1,-17.5 -0.1,-26.1 0,-0.7 -1.7,-1.4 -2.6,-2 1,-0.6 2,-1.2 2.9,-1.7 0.4,0.8 1.2,1.6 1.2,2.5 0.1,3.6 0.1,7.3 0.1,11.8 2.9,-0.7 5.1,-0.9 7.2,-1.7 3.1,-1.2 4.5,-0.2 4.5,2.9 0.1,3.7 0.2,7.3 0,11 -0.3,3.6 1.2,4.7 4.6,4.5 4.1,-0.3 8.5,-1.2 10.6,4.1 0.3,0.6 2.4,0.8 3.6,0.8 11.1,0.1 22.3,0 33.4,0.1 1.4,0 2.7,1.4 4.1,2.3 0.8,0.5 1.5,1.1 2.2,1.7 2.9,2.5 5.7,5.1 8.9,7.900003 -16.1,0 -31,0.3 -45.9,-0.300003 -2.1,-0.1 -5.3,-3.8 -5.8,-6.2 -1.8,-8.9 -7.3,-10 -15.2,-9.9 -30.3,0.4 -60.6,0.2 -90.9,0.2 -4.3,0 -8.6,-0.6 -12.9,-0.9 -3.4,-0.2 -6,0.6 -6,4.3 -2.2,-0.4 -4.2,-1.2 -6.2,-1.2 -25.8,0 -51.6,0.2 -77.4,0.1 -4.5,0 -6.2,1.6 -6.1,6.1 0.2,11.600003 0.1,23.200003 0.1,34.900003 6,-2.1 11,-3.8 16,-5.5 l -0.1,-0.1 c -0.8,1.1 -1.6,2.2 -2.8,3.8 1.3,0.2 2.3,0.5 3.3,0.6 7.3,0.7 14.7,0.8 21.9,2.2 3.9,0.8 7.2,1.1 11,0.1 1.5,-0.4 3.5,1.1 5.3,1.7 -1.3,0 -2.6,0 -3.8,0 -0.1,0.4 -0.1,0.8 -0.2,1.3 4.1,0.7 8.3,1.5 12.2,2.2 -1.3,0.5 -2.9,1.1 -4.5,1.8 0.1,0.2 0.1,0.4 0.2,0.5 4.9,-0.7 9.7,-1.4 14.8,-2.2 -2,-0.5 -3.9,-1 -5.7,-1.4 9.2,0.6 18.3,1.5 27.5,1.8 18.9,0.6 37.8,0.8 56.7,1.1 1.5,0 3,-0.3 4.5,-0.5 0,-0.4 -0.1,-0.8 -0.1,-1.3 -16.3,0 -32.6,0 -48.9,0 0,-0.3 0,-0.7 0,-1 16.2,0 32.5,0 48.9,0 0,-7.5 0,-14.5 0,-22.1 -30.9,-1.1 -61.1,2.2 -91.5,3.3 6,-0.7 12,-1.5 18,-2.2 -0.1,-0.6 -0.2,-1.2 -0.2,-1.7 -5,-0.5 -10,-1.2 -15,-1.3 -8,-0.2 -16,-0.1 -24,-0.1 -8.2,0 -16.5,0 -24.7,0 -7.3,0 -7.3,-0.1 -7.2,-7.4 0.1,-8.400003 0.1,-8.400003 8.7,-8.400003 19,0 38,0 57,0 3,0 6.7,-0.9 6.7,4.2 0,0.5 1.5,0.9 2.3,1.4 1.1,0.8 2.2,1.7 3.2,2.500003 0,-2.700003 0,-5.800003 0,-8.900003 0.3,0 0.5,0 0.8,0 0,6.3 0,12.500003 0,19.300003 3.3,0 6.4,0.1 9.4,0 1.1,0 2.3,-0.6 3.4,-0.6 11.1,-0.3 22.2,-0.5 33.3,-0.9 5.6,-0.2 11.3,-1.2 16.9,-0.9 10.9,0.4 21.9,0.8 32.8,1 2.2,0 4.5,1.4 6.5,1.5 2.2,-0.2 4.5,-0.7 6.7,-0.6 5.8,0.2 11.5,0.6 17.3,1 6.6,0.4 13.1,0.8 19.7,1.9 -3.4,0 -6.8,0 -10.5,0 0,5.6 0,10.7 0,16.5 8.5,0 16.7,0 25.1,0 0,-5.2 0,-10 0,-14.2 1.9,-0.2 3.6,-0.3 5.2,-0.5 0.6,-0.1 1.3,-0.5 1.9,-0.4 11.5,1.9 22.9,3.9 34.4,5.9 -11.8,-1.5 -23.6,-3 -35.7,-4.6 0,5.2 0,9.3 0,13.8 15.8,-1.8 31.5,0.3 47.7,-4.9 -3,-1.9 -4.7,-3 -6.5,-4.1 2.7,0.6 3.3,-0.5 1.5,-2.4 -2.6,-2.8 -5.5,-5.3 -9,-8.6 5.7,1.3 14.7,11.3 14.6,15.7 0,1.8 -1.2,3.8 -2.3,5.4 -7.9,10.8 -18,17.9 -31.6,19.8 -1.8,0.3 -4.2,2.7 -4.8,4.6 -1.6,5.4 -5,7.3 -10.3,7.2 -12.2,-0.1 -24.3,0.1 -36.5,-0.1 -5,-0.1 -9.5,0.3 -12.3,5.4 -3.2,5.8 -1.5,10.9 1.2,16.4 5,10.4 15,15.2 22.9,22.5 8,7.5 16.3,14.9 22.7,23.6 6.4,8.6 10.8,18.6 15.8,28.1 2.2,4.2 4.4,8.5 5.7,13 0.7,2.5 -0.5,5.5 -0.9,8.2 -0.2,1.5 -1,3.1 -0.7,4.5 1.5,9.3 -3.2,15.2 -12.4,16.7 -15.8,2.6 -31.4,6 -47.1,8.6 -2.7,0.4 -5.8,-1.3 -8.6,-2.2 -2.2,-0.7 -4.3,-1.6 -6.3,-3.1 3.1,-1.2 6.2,-2.9 8.2,1.2 0.1,0.1 0,0.4 0.1,0.5 3.4,2.7 17.9,-2.4 19.4,-7 -0.8,0.6 -1.4,1 -2,1.5 -0.2,-0.2 -0.4,-0.4 -0.7,-0.6 1.3,-1.4 2.5,-2.9 4,-4.2 0.5,-0.4 1.4,-0.3 2.1,-0.4 0.6,0.9 1.2,2.6 1.8,2.6 3.1,-0.1 6.3,-0.5 9.4,-0.9 7.7,-1.2 15.4,-2.4 24,-3.8 0.2,-2.8 0.4,-6.6 0.7,-10.4 -4,0.3 -9.1,1.7 -9.9,0.4 -2.5,-4 -5.5,-1.8 -7.9,-1.6 -5.8,0.6 -11.5,1.9 -17.2,2.9 0,0.3 0.1,0.6 0.1,0.9 1.9,0 3.7,0 5.6,0 -3.7,0.9 -5.8,2.5 -5.1,6.7 0.2,1 -1,2.2 -1.6,3.3 -0.1,-2.8 -0.3,-5.6 -0.4,-8.4 -0.1,0 -0.3,0 -0.4,0 -0.1,1.4 -0.2,2.8 -0.3,4.8 -1.2,-3.9 -2.3,-7.2 -3.4,-10.8 -1.7,1 -2.8,1.7 -4,2.4 -0.3,-0.3 -0.6,-0.7 -0.9,-1 1.2,-0.7 2.3,-1.4 3.8,-2.3 -2,-2.2 -3.6,-4 -5.3,-5.8 l -0.2,0.2 c 1,0 2.1,0 3.1,0 1.4,0.9 2.7,1.8 4.1,2.7 10.2,-1.7 20.4,-3.3 30.6,-5 0,-0.4 0,-0.9 0,-1.3 -1.8,-0.2 -3.6,-0.4 -5.4,-0.5 0,-0.2 0.1,-0.5 0.1,-0.7 2.5,-0.6 5.1,-1.1 7.6,-1.7 -1.1,-1.2 -2,-1.3 -2.9,-1.6 -0.7,-0.2 -1.4,-0.6 -2.3,-1 3.9,-0.8 7.3,-1.5 10.6,-2.2 0,-0.3 -0.1,-0.7 -0.1,-1 -2.2,0 -4.4,0 -7.6,0 3.3,-1.6 5.7,-2.7 8,-3.9 0,-0.3 -0.1,-0.5 -0.1,-0.8 -19.3,2.9 -38.7,5.7 -58,8.6 3.2,-0.9 6.3,-2.2 9.6,-2.7 8.4,-1.4 16.9,-2.5 25.3,-3.8 5,-0.8 10,-1.7 15,-2.6 -0.1,-0.6 -0.2,-1.3 -0.3,-1.9 -17.8,2.6 -35.5,5.2 -53.3,7.8 -0.1,-0.5 -0.2,-1 -0.2,-1.5 7.9,-1.4 15.9,-2.8 23.8,-4.2 0,-0.4 -0.1,-0.8 -0.1,-1.2 -5.9,0.6 -11.8,1.1 -17.7,1.7 -0.1,-0.4 -0.1,-0.8 -0.2,-1.2 5.5,-0.9 11,-1.8 16.5,-2.7 -0.1,-0.4 -0.1,-0.9 -0.2,-1.3 -6.6,0.8 -13.2,1.5 -19.8,2.6 -2.7,0.4 -5.2,1.8 -7.8,2.7 -2.4,-5.1 -4.8,-10.2 -7.2,-15.3 1.1,0.1 2.2,0.4 3.2,0.3 9.3,-1.1 18.5,-2 27.8,-3.4 8.4,-1.3 16.8,-3.1 25.2,-4.7 -0.1,-0.5 -0.1,-0.9 -0.2,-1.4 -9.3,1.1 -18.6,2.1 -27.9,3.2 -0.1,-0.5 -0.1,-1 -0.2,-1.5 8.1,-1.2 16.2,-2.4 24.4,-3.6 -0.1,-0.6 -0.2,-1.3 -0.3,-1.9 -11.4,1.6 -22.8,3.1 -34.2,4.7 -0.1,-0.7 -0.2,-1.3 -0.3,-2 9.6,-1.2 19.1,-2.5 28.7,-3.7 -0.1,-0.7 -0.2,-1.5 -0.3,-2.2 -7.3,0.9 -14.5,1.9 -21.8,2.8 -8.3,1.1 -16.6,2.2 -24.9,3.3 1.5,-0.9 2.8,-2.2 4.4,-2.6 2.9,-0.7 6,-1 9,-1.4 0,-0.2 -0.1,-0.3 -0.1,-0.5 -1.8,-0.2 -3.6,-0.3 -5.5,-0.5 0,-0.4 -0.1,-0.8 -0.1,-1.2 12.8,-2.1 25.6,-4.2 38.4,-6.3 -0.1,-0.6 -0.2,-1.3 -0.4,-1.9 -17,2.6 -34,5.2 -50.9,7.8 0,0.6 0,1.1 0,1.7 2.4,0.2 4.8,0.3 7.6,0.5 -2.3,0.8 -4.2,1.5 -6.1,2.2 0,0.5 0.1,1 0.1,1.6 1.2,0.2 2.4,0.3 3.6,0.5 -0.8,1.1 -1.5,2.3 -2.3,3.4 -1.7,-3.8 -3.4,-7.6 -5.1,-11.5 6.4,-1.1 12.8,-2.2 19.3,-3.1 8.5,-1.3 17,-2.4 25.5,-3.6 2.5,-0.4 5,-0.9 7.4,-1.4 -0.1,-0.5 -0.2,-0.9 -0.3,-1.4 -10.4,1.5 -20.8,3 -31.1,4.5 -0.1,-0.5 -0.1,-1 -0.2,-1.4 9.7,-1.6 19.4,-3.2 29.1,-4.8 0,-0.4 -0.1,-0.8 -0.1,-1.1 -2.5,0 -5.1,0 -7.6,0 0,-0.2 0,-0.4 -0.1,-0.7 1.3,-0.5 2.7,-1.1 4,-1.6 -0.1,-0.3 -0.2,-0.6 -0.2,-0.9 -12.2,1.4 -24.5,2.7 -36.7,4.1 11,-2.2 22,-4.3 33.1,-6.5 0,-0.2 -0.1,-0.3 -0.1,-0.5 -3.9,0 -7.9,0 -11.8,0 2.9,-0.7 5.7,-1.4 8.6,-2.1 -0.1,-0.5 -0.2,-1 -0.3,-1.5 -5.4,0.5 -10.7,1.1 -16.1,1.6 0,-0.2 -0.1,-0.4 -0.1,-0.6 4.2,-0.8 8.4,-1.6 12.7,-2.4 -0.1,-0.6 -0.1,-1.1 -0.2,-1.7 -3.7,0.3 -7.5,0.5 -11.2,1 -10.1,1.2 -20.2,2.4 -30.3,3.7 0.5,-0.4 1,-0.9 1.6,-1 8,-1 15.9,-1.9 23.9,-3 4.2,-0.6 8.5,-1.3 12.7,-2 -0.1,-0.6 -0.1,-1.3 -0.2,-1.9 -4,0.4 -8,0.7 -12,1.1 0,-0.3 -0.1,-0.6 -0.1,-0.9 2.9,-0.6 5.8,-1.2 8.7,-1.8 0,-0.3 -0.1,-0.6 -0.1,-0.9 -4.6,0.4 -9.3,0.7 -13.9,1.1 0,-0.3 -0.1,-0.7 -0.1,-1 2.7,-0.5 5.4,-0.9 8.1,-1.4 -0.1,-0.5 -0.2,-1 -0.3,-1.5 -11.1,1.4 -22.1,2.9 -33.2,4.3 1.3,-0.7 2.5,-1.7 3.9,-2 3.4,-0.8 6.9,-1.2 10.4,-1.8 -0.1,-0.4 -0.1,-0.8 -0.2,-1.2 -5,0.7 -10,1.3 -14.9,2.1 -0.5,0.1 -0.8,1.2 -1.2,1.9 -0.6,-2.5 -2.1,-5.3 -1.4,-7.3 0.6,-1.5 4.1,-2.4 6.3,-2.5 4.9,-0.4 9.9,-0.1 14.9,-0.1 0,0.6 0.1,1.3 0.1,1.9 -6.8,1.1 -13.5,2.1 -20.3,3.2 0.1,0.4 0.1,0.9 0.2,1.3 12.7,-0.6 25.4,-7.5 38.3,0.5 -2,-3 -3.5,-5.2 -4.9,-7.4 -2.9,-4.6 -6.1,-8.6 -12.2,-9.1 -2.9,-0.2 -5.8,-0.9 -8.8,-1.3 0.4,-0.8 0.7,-1.4 0.9,-1.7 -11.7,-1.8 -23.4,-3.5 -35.1,-5.3 0,-0.1 0,-0.2 0,-0.4 19.4,0 38.8,0 58.3,0 0,-0.2 0,-0.5 0,-0.7 -25,0 -50.1,0 -74.9,0 -0.3,5.5 -0.5,11 -0.8,16.5 -0.2,0 -0.5,0 -0.7,0 -0.2,-5.1 -0.5,-10.1 -0.7,-15.2 -0.4,0 -0.9,0 -1.3,0.1 0,7.9 0,15.9 0,23.8 -0.3,0 -0.6,0 -0.9,0 0,-7.1 0,-14.2 0,-21.3 -0.4,0 -0.7,0 -1.1,0 0,6.6 0,13.1 0,19.7 -0.3,0 -0.7,0 -1,0 0,-3.8 0,-7.5 0,-11.3 -0.3,0 -0.7,0 -1,0 0,4.1 0,8.3 0,12.4 -0.3,0 -0.5,0 -0.8,0 0,-8.8 0,-17.7 0,-26.5 -2,0 -3.9,0 -5.6,0 -0.6,8.3 -1.2,16.2 -1.9,25.4 -0.5,-1.8 -0.8,-2.2 -0.8,-2.7 -0.1,-6.7 0,-13.3 -0.2,-20 0,-1.1 -1.2,-2.2 -1.8,-3.3 -0.4,0.3 -0.8,0.5 -1.2,0.8 2.4,3.9 2.4,19.9 -0.6,23.7 0,-3.4 0,-6.1 0,-9.6 -0.8,1.3 -1.2,1.8 -1.9,3 -0.2,-2.7 -0.3,-4.5 -0.4,-7.1 -0.9,3.1 -1.5,5.5 -2.6,9.3 0,-7.2 0,-12.8 0,-18.5 -0.3,0 -0.7,0 -1,0 0,3.5 0,7 0,10.5 -0.4,0 -0.7,0 -1.1,0 0,-3.8 0,-7.5 0,-11.7 -2.1,0.1 -3.6,0.2 -5.4,0.3 0,6.7 0,13 0,19.3 -0.2,0 -0.5,0 -0.7,0 0,-5.2 0,-10.5 0,-15.7 -0.4,0 -0.7,0 -1.1,0 0,6.4 0,12.8 0,19.2 -0.3,0 -0.6,0 -0.9,0 0,-6.6 0,-13.2 0,-19.8 -0.3,0 -0.6,0 -0.9,0 0,6.7 0,13.4 0,20.1 -0.8,-6.7 -0.9,-13.3 -0.8,-20 0,-2.6 -0.5,-4.4 -4.2,-2.8 0,3.5 0,7.3 0,11.1 -0.3,0 -0.7,0 -1,0 0,-3.5 0,-7 0,-10.4 -0.1,0 -0.2,0 -0.3,0.1 -1,5.5 -1.9,10.9 -3.1,17.6 -1.2,-5.2 -2,-9.2 -3,-13.3 -0.3,1.7 -0.5,3.2 -0.8,5.4 -0.9,-1.6 -1.3,-2.4 -1.8,-3.3 -1.4,-1.1 -2,-1.7 -2.6,-2.4 z m 168.4,83.9 c -4.3,1.1 -8.5,2.1 -12.8,3.2 0.1,0.4 0.2,0.9 0.2,1.3 6.3,-1 12.6,-1.9 18.9,-2.9 0,-0.4 -0.1,-0.7 -0.1,-1.1 -2.1,-0.1 -4.3,-0.3 -6.4,-0.4 0.7,-0.2 1.9,-0.3 2.1,-0.8 0.9,-1.8 1.4,-3.8 2.1,-5.7 -1.3,-0.1 -2.6,-0.5 -3.9,-0.4 -6.7,0.8 -13.4,1.9 -20.1,2.7 -0.7,0.1 -1.6,-0.3 -3.7,-0.9 9.7,-1.6 17.8,-2.9 26,-4.2 -0.1,-0.7 -0.2,-1.5 -0.3,-2.2 -8.3,1.2 -16.6,2.6 -25,3.7 -8.4,1.2 -16.9,2.2 -25.4,3.3 0,-0.4 -0.1,-0.8 -0.1,-1.1 16.1,-2.5 32.2,-4.9 48.4,-7.4 -0.1,-0.7 -0.2,-1.3 -0.3,-2 -17.1,2.5 -34.2,5.1 -51.5,7.6 0.8,2.3 1.4,3.9 1.9,5.6 2.2,0.1 4.2,0.2 6.7,0.4 -2.2,0.6 -3.9,1.1 -5.6,1.6 0.1,0.7 0.2,1.4 0.3,2.1 15.8,-2.2 31.6,-4.3 47.4,-6.5 0.1,0.4 0.1,0.8 0.2,1.1 -5.2,0.9 -10.5,1.7 -15.7,2.6 0,0.2 0.1,0.3 0.1,0.5 5.6,-0.2 11.1,-0.2 16.6,-0.1 z m -82.5,-115.5 c 9.1,0 17.8,0 26.5,0 0,-0.3 0,-0.6 0.1,-0.9 -2,-0.2 -4.1,-0.4 -7.3,-0.8 3.4,-0.4 5.5,-0.6 7.6,-0.9 0,-0.4 -0.1,-0.8 -0.1,-1.2 -1.7,-0.3 -3.5,-0.6 -5.2,-0.9 0,-0.2 0,-0.3 0.1,-0.5 1.6,0 3.3,0 5,0 0,-6.7 0,-13.3 0,-20 -9.1,-0.4 -17.8,-0.8 -26.8,-1.2 0,2.3 0,3.6 0,4.9 0,1.2 -0.1,2.5 -0.2,3.7 -0.7,-1.6 -0.6,-3.3 -0.8,-4.9 -0.1,-0.6 -0.9,-1.4 -1.5,-1.5 -0.6,-0.1 -1.6,0.4 -1.9,1 -1.4,2.4 0.3,11.3 2.3,12.9 -0.6,0.7 -1.2,1.4 -1.9,2.1 0.4,0.3 0.7,0.6 1.1,0.9 0.6,-0.8 1.6,-1.6 1.8,-2.5 0.3,-1.4 0.1,-2.8 0.1,-4.3 0.3,0 0.7,0 1,0 0.1,4.8 0.1,9.4 0.1,14.1 z m 33.4,-8.2 c 5.7,0.8 10.9,1.6 16.1,2.2 7.7,0.9 8.5,0.1 8.5,-7.7 0,-2 0.4,-4.1 -0.1,-6 -0.5,-1.6 -1.9,-3.9 -3.1,-4.1 -7,-0.8 -14.1,-1.1 -21.4,-1.6 0,6.4 0,11.9 0,17.2 z M 113.02889,84.692457 c 0,6.6 0,12.5 0,18.500003 0,5.2 4,3.3 6.6,3.5 2.5,0.3 5.1,0.2 4.8,-3.7 -0.5,-5.800003 -0.7,-11.600003 -1.1,-17.700003 -3.4,-0.1 -6.5,-0.3 -10.3,-0.6 z m 185.29999,11.5 c 0,-0.5 0,-1 0,-1.5 -1.7,0 -3.4,0 -5.1,0 -10.5,-0.1 -21.1,-0.1 -31.6,-0.3 -9.4,-0.2 -18.9,-0.6 -28.3,-0.8 -1.1,0 -2.1,0.9 -3.2,1.5 0.1,0.4 0.3,0.8 0.4,1.2 22.6,-0.1 45.2,-0.1 67.8,-0.1 z m -67.5,4.300003 c 0,0.2 0,0.5 0,0.7 22.7,0 45.5,0 68.2,0 0,-0.2 0,-0.5 0,-0.7 -22.7,0 -45.4,0 -68.2,0 z m 251,52.3 c -12.5,2 -24.5,4 -36.6,5.9 10.9,1 21.8,1.2 32.6,0.9 3.2,0 4.9,-2.5 4,-6.8 z m -75.1,-83.700003 c 0,4.4 0,8.8 0,13.5 2.9,0.2 5.6,0.4 8.4,0.6 0,-5.5 0,-10.6 0,-15.7 -2.9,0.5 -5.5,1 -8.4,1.6 z M 179.42889,151.29246 c 0,0.3 0,0.7 0,1 21.4,0 42.89999,0 64.29999,0 0,-0.3 0,-0.7 0,-1 -21.4,0 -42.79999,0 -64.29999,0 z m 0.2,-3.2 c 0,0.4 0,0.7 0,1.1 20.6,0 41.19999,0 61.79999,0 0,-0.4 0,-0.7 0,-1.1 -20.6,0 -41.19999,0 -61.79999,0 z m 287.49999,130.5 c -0.1,-0.3 -0.1,-0.5 -0.2,-0.8 3.1,-0.8 6.2,-1.7 9.3,-2.5 -0.1,-0.4 -0.2,-0.8 -0.3,-1.2 -9.8,1.4 -19.6,2.8 -29.4,4.2 0,0.5 0,1.1 0.1,1.6 2.6,0 5.2,0 7.7,0 0,0.1 0,0.3 0,0.4 -1.6,0.4 -3.2,0.8 -4.8,1.2 0.1,0.4 0.2,0.8 0.2,1.2 7.6,-1 15.2,-2.1 22.8,-3.1 0,-0.3 -0.1,-0.6 -0.1,-0.9 -1.7,-0.1 -3.5,-0.1 -5.3,-0.1 z m -387.099988,-167 c -0.1,0.5 -0.2,1.1 -0.3,1.6 2.8,0.3 5.5,0.5 9.8,0.9 -2.7,1.5 -4.2,2.4 -5.8,3.3 0,0.4 0.1,0.7 0.1,1.1 5.7,-0.4 11.4,-0.7 17.199998,-1.1 0,-0.4 0,-0.8 0,-1.2 -1.499998,-0.4 -3.099998,-0.8 -4.699998,-1.2 1.7,-0.3 3.4,-0.5 4.999998,-0.8 0,-0.4 0,-0.9 0,-1.3 -7.199998,-0.4 -14.199998,-0.8 -21.299998,-1.3 z M 371.72888,83.592457 c 0,-10.6 0,-19.6 0,-29.2 -3.3,3.4 -3.5,21.8 0,29.2 z m -105.7,77.300003 c 0,0.1 0,0.2 -0.1,0.4 25.2,0 50.5,0 75.7,0 0,-0.1 0,-0.2 0,-0.4 -25.2,0 -50.4,0 -75.6,0 z m -157.09999,-60.6 c 0.3,0 0.6,0 1,0 0,-12.500003 0,-25.000003 0,-37.500003 -0.3,0 -0.6,0 -1,0 0,12.6 0,25 0,37.500003 z m -6.9,-17.900003 c 0.4,7.7 0.7,14.5 1.1,22.500003 4.1,-4.900003 3.3,-20.100003 -1.1,-22.500003 z m 290.89999,-0.3 c 0.3,0 0.6,0 0.9,0 0,-9.1 0,-18.1 0,-27.2 -0.3,0 -0.6,0 -0.9,0 0,9.1 0,18.1 0,27.2 z m -7.1,-13.4 c 0.4,3.9 0.7,7.5 1.3,11 0.2,1 1.3,1.8 2,2.7 0.5,-0.9 1.3,-1.8 1.4,-2.7 0.2,-3.6 0.1,-7.2 0.1,-11 -1.8,0 -3.1,0 -4.8,0 z m -11,0.3 c 0.9,4.8 1.6,9.1 2.4,13.4 0.4,-0.1 0.9,-0.2 1.3,-0.3 2.1,-9 1.1,-13.3 -3.7,-13.1 z m -247.59999,-1.7 c -0.2,0 -0.4,0 -0.6,0 0,13.2 0,26.4 0,39.600003 0.2,0 0.4,0 0.6,0 0,-13.200003 0,-26.400003 0,-39.600003 z m 282.39999,60.900003 c 3.2,-4.4 2.7,-12.1 0,-14.3 0,4.8 0,9.6 0,14.3 z m -43.1,-45.700003 c 3.4,-9.7 2.3,-14.1 -2,-13.2 0.3,2.3 0.5,4.6 0.8,6.9 0.4,2.1 0.8,4.2 1.2,6.3 z m 16.2,-25.3 c -0.3,0 -0.6,0 -1,0 0,8.4 0,16.7 0,25.1 0.3,0 0.6,0 1,0 0,-8.4 0,-16.7 0,-25.1 z m 71.3,166.900003 c -0.1,-0.5 -0.2,-1.1 -0.2,-1.6 -7.2,1.1 -14.4,2.3 -21.6,3.4 0.1,0.4 0.1,0.8 0.2,1.2 7.1,-1 14.4,-2 21.6,-3 z m -17.7,-128.100003 c 0,0.2 0,0.4 0,0.6 11.1,0 22.3,0 33.4,0 0,-0.2 0,-0.4 0,-0.6 -11,0 -22.2,0 -33.4,0 z m -20.6,36.500003 c 0.1,0.4 0.2,0.9 0.3,1.3 6.9,-0.5 13.8,-1.1 20.7,-1.6 0,-0.3 0,-0.6 0,-0.9 -7.1,0.5 -14.1,0.9 -21,1.2 z"
       id="path3163" />
    <path
       d="m 294.42888,168.39246 c 0.6,0.7 1.2,1.3 1.8,2 -0.1,4.3 -0.2,8.6 -0.3,12.9 -0.5,0 -1,-0.1 -1.5,-0.1 0.2,-1.7 0.3,-3.3 0.5,-5 -0.4,-0.1 -0.9,-0.1 -1.3,-0.2 -0.4,5.5 -5.4,10.2 -1.7,17.5 0.2,-3 0.4,-4.9 0.5,-6.7 0.1,4.3 2.8,4.8 6.2,4.8 13.2,-0.1 26.3,-0.1 39.5,-0.1 4.9,0 9.9,0 14.8,0 0.3,-3.6 0.6,-6.8 0.8,-9.9 2,2.1 3.1,4.3 4,6.6 1.1,3 2.8,4.1 6.3,3.3 6.1,-1.3 17.2,4.5 19.4,10.3 2.1,5.5 3.5,11.3 5.1,16.9 0.3,0 2.2,-0.3 2.7,0.4 6.1,8.7 13.4,17 8.3,28.8 9.9,1.7 16.7,13.3 14,22.1 -0.4,1.3 1.2,3.3 1.8,4.9 -0.3,1 -0.6,2 -0.9,3 -0.4,2.4 -0.9,4.9 -1.3,7.3 -0.5,0 -1,-0.1 -1.5,-0.1 0,-2 -0.4,-4.1 0.1,-5.9 2.8,-11.1 -0.1,-19.4 -9.4,-25.9 -3,-2.1 -4.3,-4.6 -3.7,-8 1.3,-8.3 -1.5,-15 -8.3,-19.8 -3.6,-2.5 -5.1,-5.5 -5,-10.1 0.2,-9.1 -9.6,-17.9 -19.1,-19.9 -19.8,-4.2 -39.6,-1.2 -59.4,-2.1 -1.5,-0.1 -3,1.6 -4.5,1.7 -3.4,0.3 -7.2,1.1 -10.1,-0.1 -1.7,-0.7 -2.9,-4.8 -2.8,-7.3 0.1,-3.6 1.6,-7.1 2.4,-10.6 0.1,-0.5 0.2,-1.3 0.5,-1.4 5.4,-1.9 1.6,-6.1 2.1,-9.3 z"
       id="path3167" />
    <path
       d="m 414.42888,280.09246 c 0.3,-1 0.6,-2 0.9,-3 3.4,-1.7 6.7,-3.4 10.1,-5.2 -1.2,-0.3 -2.4,-0.5 -3.7,-0.8 0.1,-0.3 0.1,-0.6 0.2,-0.9 6.2,0.6 12.3,1.1 18.5,1.7 l -0.1,-0.2 c -0.2,1.8 -4.5,-0.5 -3,3 l 0.2,-0.2 c -0.6,1 -1.4,2 -1.8,3.1 -0.4,1.2 -0.4,2.5 -0.8,4.9 2,2.5 6.7,5.6 3.2,11.3 -2,3.3 -4.1,6.1 -8.5,5.6 -4.1,-0.5 -6.9,-2.4 -8.6,-7.6 1.4,0.9 2.1,1.2 2.5,1.7 2.4,3.3 5.6,4.2 9.1,2.2 3.3,-1.9 4,-6.9 1.9,-10.2 -2.4,-3.8 -3.3,-3.8 -7.5,-2.2 -1.3,0.5 -3.3,-0.8 -5,-1.2 -2.7,-0.8 -5.2,-1.4 -7.6,-2 z"
       id="path3171" />
    <path
       d="m 206.32889,93.592457 c -12.3,-1.2 -24.5,-2.5 -36.8,-3.7 0,-0.3 0.1,-0.7 0.1,-1 12.3,1.1 24.5,2.2 36.8,3.3 0,0.5 0,0.9 -0.1,1.4 z"
       id="path3185" />
    <path
       d="m 97.154116,234.63891 0,23.04 -3.708,0 0,-50.94 13.031994,0 c 5.85598,5e-5 10.23597,1.14005 13.14,3.42 2.92797,2.25604 4.39197,5.58004 4.392,9.972 -3e-5,1.94403 -0.34803,3.72003 -1.044,5.328 -0.67203,1.60803 -1.64403,3.02403 -2.916,4.248 -1.24803,1.20002 -2.77203,2.19602 -4.572,2.988 -1.77602,0.76802 -3.76802,1.27202 -5.976,1.512 0.57598,0.36002 1.09198,0.84002 1.548,1.44 l 17.532,22.032 -3.168,0 c -0.40804,0 -0.75604,-0.06 -1.044,-0.18 -0.26403,-0.144 -0.51603,-0.396 -0.756,-0.756 l -16.344,-20.664 c -0.19202,-0.26398 -0.39602,-0.49198 -0.612,-0.684 -0.19202,-0.19198 -0.42002,-0.33598 -0.684,-0.432 -0.24002,-0.11998 -0.54002,-0.20398 -0.9,-0.252 -0.33602,-0.048 -0.75601,-0.072 -1.26,-0.072 l -6.659994,0 m 0,-2.736 8.819994,0 c 2.25598,2e-5 4.27198,-0.26398 6.048,-0.792 1.79998,-0.55198 3.31197,-1.33197 4.536,-2.34 1.24797,-1.00797 2.19597,-2.21997 2.844,-3.636 0.64797,-1.41597 0.97197,-3.01197 0.972,-4.788 -3e-5,-3.62396 -1.18803,-6.31196 -3.564,-8.064 -2.35202,-1.75196 -5.79602,-2.62795 -10.332,-2.628 l -9.323994,0 0,22.248"
       id="path3429" />
    <path
       d="m 175.91649,257.67891 -2.844,0 c -0.33604,0 -0.61204,-0.084 -0.828,-0.252 -0.21604,-0.192 -0.38404,-0.432 -0.504,-0.72 l -5.976,-14.796 -25.02,0 -5.976,14.796 c -0.096,0.264 -0.26401,0.492 -0.504,0.684 -0.24001,0.192 -0.52801,0.288 -0.864,0.288 l -2.808,0 20.844,-50.94 3.636,0 20.844,50.94 m -34.092,-18.504 22.824,0 -10.368,-25.74 c -0.36003,-0.83996 -0.70803,-1.84796 -1.044,-3.024 -0.16802,0.57604 -0.33602,1.12804 -0.504,1.656 -0.16802,0.52804 -0.33602,0.99604 -0.504,1.404 l -10.404,25.704"
       id="path3431" />
    <path
       d="m 195.52186,236.69091 0,20.988 -3.672,0 0,-20.988 -18.864,-29.952 3.24,0 c 0.336,5e-5 0.612,0.084 0.828,0.252 0.216,0.14405 0.396,0.36005 0.54,0.648 l 14.58,23.4 c 0.31198,0.55202 0.58798,1.09202 0.828,1.62 0.26398,0.50402 0.49198,1.00802 0.684,1.512 0.19198,-0.50398 0.40798,-1.00798 0.648,-1.512 0.26398,-0.52798 0.55198,-1.06798 0.864,-1.62 l 14.58,-23.4 c 0.11997,-0.26395 0.28797,-0.47995 0.504,-0.648 0.23997,-0.16795 0.52797,-0.25195 0.864,-0.252 l 3.23999,0 -18.86399,29.952"
       id="path3433" />
    <path
       d="m 260.96985,252.67491 c -2.54404,1.8 -5.25604,3.18 -8.136,4.14 -2.88003,0.96 -6.12003,1.44 -9.72,1.44 -4.03202,0 -7.65602,-0.612 -10.872,-1.836 -3.21601,-1.248 -5.96401,-3 -8.244,-5.256 -2.25601,-2.27999 -3.996,-5.02799 -5.22,-8.244 -1.2,-3.21598 -1.8,-6.79198 -1.8,-10.728 0,-3.93597 0.588,-7.49997 1.764,-10.692 1.2,-3.21596 2.90399,-5.95196 5.112,-8.208 2.23199,-2.27996 4.91999,-4.03195 8.064,-5.256 3.14398,-1.24795 6.68398,-1.87195 10.62,-1.872 1.94397,5e-5 3.73197,0.13205 5.364,0.396 1.65597,0.26405 3.19197,0.66005 4.608,1.188 1.41596,0.50405 2.73596,1.14005 3.96,1.908 1.22396,0.74404 2.39996,1.60804 3.528,2.592 l -1.008,1.584 c -0.33604,0.57604 -0.84004,0.70804 -1.512,0.396 -0.36004,-0.14396 -0.87604,-0.47996 -1.548,-1.008 -0.67204,-0.52796 -1.59604,-1.07996 -2.772,-1.656 -1.17604,-0.57596 -2.64003,-1.09196 -4.392,-1.548 -1.72803,-0.45595 -3.84003,-0.68395 -6.336,-0.684 -3.31202,5e-5 -6.31202,0.52804 -9,1.584 -2.66401,1.05604 -4.94401,2.56804 -6.84,4.536 -1.87201,1.96804 -3.32401,4.36804 -4.356,7.2 -1.008,2.83203 -1.512,6.01203 -1.512,9.54 0,3.57602 0.504,6.79202 1.512,9.648 1.03199,2.85601 2.50799,5.28001 4.428,7.272 1.94399,1.992 4.29599,3.516 7.056,4.572 2.75998,1.056 5.86798,1.584 9.324,1.584 1.51197,0 2.90397,-0.084 4.176,-0.252 1.29597,-0.192 2.51997,-0.468 3.672,-0.828 1.17596,-0.36 2.30396,-0.792 3.384,-1.296 1.10396,-0.528 2.21996,-1.116 3.348,-1.764 l 0,-13.716 -9.756,0 c -0.26403,2e-5 -0.49203,-0.084 -0.684,-0.252 -0.16803,-0.16798 -0.25203,-0.35998 -0.252,-0.576 l 0,-2.016 14.04,0 0,18.108 0,0"
       id="path3435" />
    <path
       d="m 291.81285,255.05091 c 2.44797,0 4.63197,-0.42 6.552,-1.26 1.94397,-0.864 3.58797,-2.052 4.932,-3.564 1.34396,-1.51199 2.36396,-3.28799 3.06,-5.328 0.71996,-2.06399 1.07996,-4.28399 1.08,-6.66 l 0,-31.5 3.672,0 0,31.5 c -4e-5,2.80801 -0.44404,5.43601 -1.332,7.884 -0.88804,2.42401 -2.17204,4.548 -3.852,6.372 -1.65604,1.8 -3.68403,3.216 -6.084,4.248 -2.37603,1.032 -5.05203,1.548 -8.028,1.548 -2.97602,0 -5.66402,-0.516 -8.064,-1.548 -2.37601,-1.032 -4.40401,-2.448 -6.084,-4.248 -1.65601,-1.824 -2.92801,-3.94799 -3.816,-6.372 -0.888,-2.44799 -1.332,-5.07599 -1.332,-7.884 l 0,-31.5 3.708,0 0,31.464 c -1e-5,2.37601 0.34799,4.59601 1.044,6.66 0.71999,2.04001 1.73999,3.81601 3.06,5.328 1.34399,1.512 2.97599,2.7 4.896,3.564 1.94398,0.864 4.13998,1.296 6.588,1.296"
       id="path3437" />
    <path
       d="m 327.31335,206.73891 c 0.33599,5e-5 0.58799,0.048 0.756,0.144 0.19199,0.0721 0.39599,0.25205 0.612,0.54 l 33.012,44.136 c -0.072,-0.72 -0.10804,-1.416 -0.108,-2.088 l 0,-42.732 3.204,0 0,50.94 -1.728,0 c -0.31204,0 -0.57604,-0.048 -0.792,-0.144 -0.19204,-0.12 -0.38404,-0.312 -0.576,-0.576 l -33.084,-44.172 c 0.072,0.72004 0.10799,1.39204 0.108,2.016 l 0,42.876 -3.24,0 0,-50.94 1.836,0 0,0"
       id="path3439" />
    <path
       d="m 301.24289,299.70902 18.76,0 0,2.436 -21.644,0 0,-39.62 2.884,0 0,37.184"
       id="path3442" />
    <path
       d="m 342.56301,302.14502 c -0.56002,0 -0.90535,-0.26134 -1.036,-0.784 l -0.392,-3.556 c -0.76535,0.74667 -1.53068,1.41867 -2.296,2.016 -0.74668,0.59733 -1.53068,1.10133 -2.352,1.512 -0.82134,0.41066 -1.70801,0.71866 -2.66,0.924 -0.95201,0.224 -1.99734,0.336 -3.136,0.336 -0.952,0 -1.876,-0.14 -2.772,-0.42 -0.896,-0.28 -1.69867,-0.70934 -2.408,-1.288 -0.69067,-0.57867 -1.25067,-1.316 -1.68,-2.212 -0.41067,-0.91466 -0.616,-2.00666 -0.616,-3.276 0,-1.17599 0.336,-2.26799 1.008,-3.276 0.672,-1.00799 1.72667,-1.88532 3.164,-2.632 1.43733,-0.74666 3.27599,-1.34399 5.516,-1.792 2.25866,-0.44799 4.96532,-0.70932 8.12,-0.784 l 0,-2.912 c -2e-5,-2.57598 -0.56002,-4.55465 -1.68,-5.936 -1.10135,-1.39998 -2.74401,-2.09998 -4.928,-2.1 -1.34401,2e-5 -2.49201,0.18669 -3.444,0.56 -0.93334,0.37336 -1.72667,0.78402 -2.38,1.232 -0.65334,0.44802 -1.18534,0.85869 -1.596,1.232 -0.41067,0.37335 -0.756,0.56002 -1.036,0.56 -0.20533,2e-5 -0.37333,-0.0466 -0.504,-0.14 -0.13067,-0.0933 -0.24267,-0.21465 -0.336,-0.364 l -0.476,-0.812 c 1.456,-1.45598 2.98666,-2.55731 4.592,-3.304 1.60533,-0.74664 3.42533,-1.11997 5.46,-1.12 1.49332,3e-5 2.79999,0.24269 3.92,0.728 1.11999,0.46669 2.04398,1.14802 2.772,2.044 0.74665,0.87736 1.30665,1.95069 1.68,3.22 0.37331,1.25069 0.55998,2.65068 0.56,4.2 l 0,18.144 -1.064,0 m -11.2,-1.484 c 1.08266,0 2.07199,-0.112 2.968,-0.336 0.91466,-0.24267 1.75466,-0.56933 2.52,-0.98 0.78399,-0.42933 1.51199,-0.93333 2.184,-1.512 0.67199,-0.57866 1.33465,-1.204 1.988,-1.876 l 0,-7.252 c -2.65068,0.0747 -4.93734,0.28001 -6.86,0.616 -1.92267,0.31734 -3.50934,0.75601 -4.76,1.316 -1.232,0.56001 -2.14667,1.23201 -2.744,2.016 -0.57867,0.76534 -0.868,1.64267 -0.868,2.632 0,0.93334 0.14933,1.74534 0.448,2.436 0.31733,0.672 0.728,1.232 1.232,1.68 0.52266,0.42933 1.12,0.74667 1.792,0.952 0.67199,0.20533 1.37199,0.308 2.1,0.308"
       id="path3444" />
    <path
       d="m 352.55201,302.14502 0,-40.74 2.688,0 0,17.724 c 1.21333,-1.64264 2.63199,-2.93064 4.256,-3.864 1.62399,-0.95197 3.50932,-1.42797 5.656,-1.428 1.67999,3e-5 3.18265,0.30803 4.508,0.924 1.32531,0.61602 2.44531,1.50269 3.36,2.66 0.93331,1.15735 1.64264,2.58535 2.128,4.284 0.48531,1.68002 0.72798,3.59335 0.728,5.74 -2e-5,2.25868 -0.27069,4.32134 -0.812,6.188 -0.54136,1.848 -1.33469,3.43467 -2.38,4.76 -1.02669,1.30667 -2.28669,2.324 -3.78,3.052 -1.49335,0.70933 -3.20135,1.064 -5.124,1.064 -1.97868,0 -3.66801,-0.37334 -5.068,-1.12 -1.40001,-0.76533 -2.604,-1.88533 -3.612,-3.36 l -0.168,3.416 c -0.056,0.46666 -0.308,0.7 -0.756,0.7 l -1.624,0 m 11.844,-26.18 c -1.99734,2e-5 -3.73334,0.47602 -5.208,1.428 -1.47467,0.95202 -2.79067,2.27735 -3.948,3.976 l 0,14.7 c 1.08266,1.60534 2.26799,2.73467 3.556,3.388 1.28799,0.63467 2.75332,0.952 4.396,0.952 1.66132,0 3.10799,-0.29867 4.34,-0.896 1.25065,-0.59733 2.28665,-1.44667 3.108,-2.548 0.83998,-1.12 1.46531,-2.47333 1.876,-4.06 0.41065,-1.58666 0.61598,-3.36932 0.616,-5.348 -2e-5,-3.84532 -0.76535,-6.73865 -2.296,-8.68 -1.53068,-1.94131 -3.67735,-2.91198 -6.44,-2.912"
       id="path3446" />
    <path
       d="m 398.71176,277.72902 c -0.14935,0.26135 -0.36402,0.39202 -0.644,0.392 -0.20535,2e-5 -0.46668,-0.11198 -0.784,-0.336 -0.31735,-0.24264 -0.74668,-0.50398 -1.288,-0.784 -0.52268,-0.29864 -1.17601,-0.55998 -1.96,-0.784 -0.78401,-0.24264 -1.73601,-0.36398 -2.856,-0.364 -1.00801,2e-5 -1.93201,0.14936 -2.772,0.448 -0.82134,0.28002 -1.53067,0.66269 -2.128,1.148 -0.57867,0.48535 -1.02667,1.05469 -1.344,1.708 -0.31734,0.63469 -0.476,1.30669 -0.476,2.016 0,0.87735 0.224,1.60535 0.672,2.184 0.448,0.57868 1.02666,1.07335 1.736,1.484 0.728,0.41068 1.55866,0.76535 2.492,1.064 0.93333,0.29868 1.87599,0.59735 2.828,0.896 0.97066,0.29868 1.92266,0.63468 2.856,1.008 0.93332,0.35468 1.75465,0.80268 2.464,1.344 0.72798,0.54134 1.31598,1.20401 1.764,1.988 0.44798,0.78401 0.67198,1.73601 0.672,2.856 -2e-5,1.21334 -0.21468,2.34267 -0.644,3.388 -0.42935,1.04533 -1.06402,1.95067 -1.904,2.716 -0.82135,0.76533 -1.83868,1.372 -3.052,1.82 -1.21334,0.448 -2.60401,0.672 -4.172,0.672 -1.96001,0 -3.64934,-0.308 -5.068,-0.924 -1.41867,-0.63467 -2.688,-1.456 -3.808,-2.464 l 0.616,-0.952 c 0.0933,-0.14933 0.196,-0.26133 0.308,-0.336 0.13067,-0.0747 0.29867,-0.112 0.504,-0.112 0.24267,0 0.532,0.14933 0.868,0.448 0.35467,0.29867 0.82133,0.62533 1.4,0.98 0.57866,0.336 1.288,0.65333 2.128,0.952 0.85866,0.29867 1.91333,0.448 3.164,0.448 1.17599,0 2.21199,-0.15867 3.108,-0.476 0.89599,-0.336 1.64265,-0.784 2.24,-1.344 0.59732,-0.56 1.04532,-1.21333 1.344,-1.96 0.31732,-0.76533 0.47599,-1.568 0.476,-2.408 -10e-6,-0.93333 -0.22401,-1.70799 -0.672,-2.324 -0.44801,-0.61599 -1.03601,-1.13866 -1.764,-1.568 -0.72801,-0.42932 -1.55868,-0.79332 -2.492,-1.092 -0.91468,-0.29866 -1.85734,-0.59732 -2.828,-0.896 -0.97067,-0.29866 -1.92267,-0.62532 -2.856,-0.98 -0.91467,-0.35465 -1.736,-0.80265 -2.464,-1.344 -0.728,-0.54132 -1.316,-1.19465 -1.764,-1.96 -0.448,-0.78398 -0.672,-1.75465 -0.672,-2.912 0,-0.98931 0.21467,-1.94131 0.644,-2.856 0.42933,-0.91464 1.036,-1.71731 1.82,-2.408 0.80266,-0.69064 1.77333,-1.24131 2.912,-1.652 1.13866,-0.41064 2.41733,-0.61597 3.836,-0.616 1.69866,3e-5 3.20132,0.24269 4.508,0.728 1.32532,0.48536 2.52932,1.23202 3.612,2.24 l -0.56,0.924"
       id="path3448" />
  </g>
</svg>
